<?xml version="1.0" standalone="no"?><!DOCTYPE svg PUBLIC "-//W3C//DTD SVG 1.1//EN" "http://www.w3.org/Graphics/SVG/1.1/DTD/svg11.dtd"><svg t="1558928395325" class="icon" style="" viewBox="0 0 1024 1024" version="1.1" xmlns="http://www.w3.org/2000/svg" p-id="2836" xmlns:xlink="http://www.w3.org/1999/xlink" width="200" height="200"><defs><style type="text/css"></style></defs><path d="M849.5 822.5L738.9 712c60-60.7 97.1-144.1 97.1-236 0-185.3-150.7-336-336-336S164 290.7 164 476s150.7 336 336 336c67.4 0 130-20.1 182.7-54.4l115.9 115.9c7 7 16.2 10.5 25.5 10.5s18.4-3.5 25.5-10.5c13.9-14.1 13.9-36.9-0.1-51zM236 476c0-145.6 118.4-264 264-264s264 118.4 264 264-118.4 264-264 264-264-118.4-264-264z" p-id="2837" fill="#ffffff"></path></svg>