<?xml version="1.0" standalone="no"?><!DOCTYPE svg PUBLIC "-//W3C//DTD SVG 1.1//EN" "http://www.w3.org/Graphics/SVG/1.1/DTD/svg11.dtd"><svg t="1559040382843" class="icon" style="" viewBox="0 0 1024 1024" version="1.1" xmlns="http://www.w3.org/2000/svg" p-id="5944" xmlns:xlink="http://www.w3.org/1999/xlink" width="200" height="200"><defs><style type="text/css"></style></defs><path d="M832 928 192 928c-23.466667 0-42.666667-19.2-42.666667-42.666667l0-640c0-23.466667 19.2-42.666667 42.666667-42.666667l64 0c12.8 0 21.333333 8.533333 21.333333 21.333333 0 12.8-8.533333 21.333333-21.333333 21.333333L192 245.333333l0 640 640 0 0-640-64 0c-12.8 0-21.333333-8.533333-21.333333-21.333333 0-12.8 8.533333-21.333333 21.333333-21.333333l64 0c23.466667 0 42.666667 19.2 42.666667 42.666667l0 640C874.666667 908.8 855.466667 928 832 928zM704 757.333333 320 757.333333c-12.8 0-21.333333-8.533333-21.333333-21.333333 0-12.8 8.533333-21.333333 21.333333-21.333333l384 0c12.8 0 21.333333 8.533333 21.333333 21.333333C725.333333 748.8 716.8 757.333333 704 757.333333zM704 586.666667 320 586.666667c-12.8 0-21.333333-8.533333-21.333333-21.333333 0-12.8 8.533333-21.333333 21.333333-21.333333l384 0c12.8 0 21.333333 8.533333 21.333333 21.333333C725.333333 578.133333 716.8 586.666667 704 586.666667zM704 416 320 416c-12.8 0-21.333333-8.533333-21.333333-21.333333s8.533333-21.333333 21.333333-21.333333l384 0c12.8 0 21.333333 8.533333 21.333333 21.333333S716.8 416 704 416zM661.333333 245.333333 362.666667 245.333333c-12.8 0-21.333333-8.533333-21.333333-21.333333 0-12.8 8.533333-21.333333 21.333333-21.333333l298.666667 0c12.8 0 21.333333 8.533333 21.333333 21.333333C682.666667 236.8 674.133333 245.333333 661.333333 245.333333zM512 138.666667c-36.266667 0-64 27.733333-64 64l-42.666667 0c0-59.733333 46.933333-106.666667 106.666667-106.666667s106.666667 46.933333 106.666667 106.666667l-42.666667 0C576 166.4 548.266667 138.666667 512 138.666667z" p-id="5945" fill="#707070"></path></svg>